<svg xmlns="http://www.w3.org/2000/svg" width="23.965" height="23.964" viewBox="0 0 23.965 23.964">
  <path id="delete" d="M22.8,20.109,20.1,22.8a1.262,1.262,0,0,1-1.79,0l-6.729-6.724L4.86,22.8a1.268,1.268,0,0,1-1.8,0L.372,20.109a1.268,1.268,0,0,1,0-1.8L7.1,11.585.372,4.86a1.277,1.277,0,0,1,0-1.8L3.065.372a1.268,1.268,0,0,1,1.8,0L11.585,7.1,18.314.372a1.262,1.262,0,0,1,1.79,0L22.8,3.06a1.279,1.279,0,0,1,.005,1.8l-6.729,6.724L22.8,18.314A1.268,1.268,0,0,1,22.8,20.109Z" transform="matrix(0.999, 0.035, -0.035, 0.999, 0.809, 0)"/>
</svg>
