<svg xmlns="http://www.w3.org/2000/svg" width="1319.128" height="624" viewBox="0 0 1319.128 624">
  <g id="dsaw" transform="translate(-21.7 -70.037)" style="isolation: isolate">
    <g id="Group_2" data-name="Group 2" transform="translate(52.31 265.607)">
      <g id="Group_1" data-name="Group 1">
        <path id="Path_1" data-name="Path 1" d="M38.751,172.9C49.4,193.434,57,215.488,62.326,238.113a338.635,338.635,0,0,1,9.316,69.016,352.906,352.906,0,0,1-4.373,69.4c-3.8,22.815-9.7,45.44-19.013,66.734l-1.141-.19c2.472-11.027,4.753-22.245,6.654-33.462s3.422-22.435,4.563-33.842A508.942,508.942,0,0,0,60.425,307.7a506.736,506.736,0,0,0-6.845-67.875c-1.9-11.217-4.183-22.435-6.845-33.462S41.222,184.308,37.8,173.47Z" transform="translate(-37.8 -172.9)" fill="#9cece0"/>
      </g>
    </g>
    <g id="Group_4" data-name="Group 4" transform="translate(1291.375 262.565)">
      <g id="Group_3" data-name="Group 3">
        <path id="Path_2" data-name="Path 2" d="M482.09,171.68c-.951,20.724-2.472,40.877-3.422,61.031-.76,20.153-1.141,40.117-.951,60.08s1.141,39.927,2.472,60.08,3.422,40.307,4.943,61.031l-1.141.38c-2.852-9.887-5.324-19.773-7.415-29.85s-3.993-20.153-5.324-30.23a507.747,507.747,0,0,1-4.943-61.221,503.943,503.943,0,0,1,3.232-61.221c1.141-10.077,2.662-20.344,4.563-30.42s4.183-19.963,6.654-30.04Z" transform="translate(-466.289 -171.3)" fill="#9cece0"/>
      </g>
    </g>
    <g id="Group_6" data-name="Group 6" transform="translate(1195.571 70.037)">
      <g id="Group_5" data-name="Group 5">
        <path id="Path_3" data-name="Path 3" d="M415.9,88.409a77.924,77.924,0,0,1,36.5-17.492,57.53,57.53,0,0,1,22.055.38,46.769,46.769,0,0,1,21.1,10.837,53.275,53.275,0,0,1,7.605,8.746,73.653,73.653,0,0,1,5.324,8.936c1.521,2.852,3.042,5.514,4.373,8.366,1.521,2.662,2.852,5.324,4.373,7.985,5.894,10.457,13.119,20.534,20.724,31.561l-.76.951a130.821,130.821,0,0,1-14.64-12.548,153.8,153.8,0,0,1-12.738-14.45c-3.993-5.133-7.225-10.647-10.647-15.971s-6.845-10.647-11.408-14.83a30.413,30.413,0,0,0-7.605-5.324,34.878,34.878,0,0,0-8.746-3.422,55.964,55.964,0,0,0-18.632-1.711,89.3,89.3,0,0,0-18.632,3.422c-6.084,1.711-12.168,3.8-18.062,6.084Z" transform="translate(-415.9 -70.037)" fill="#9cece0"/>
      </g>
    </g>
    <g id="Group_8" data-name="Group 8" transform="translate(46.797 86.761)">
      <g id="Group_7" data-name="Group 7">
        <path id="Path_4" data-name="Path 4" d="M34.9,156.532c6.274-3.8,12.358-7.225,17.872-11.217,2.852-1.9,5.514-3.8,8.175-5.894,2.472-2.091,5.133-4.183,7.225-6.274,2.662-2.852,4.943-8.556,7.035-14.64,2.282-6.274,3.8-12.929,8.175-21.1.38-.57.57-.951.951-1.521l1.141-1.521c.761-.951,1.9-2.091,2.852-3.232l.761-.761.57-.57,1.331-.951c.951-.57,1.711-1.331,2.662-1.9a58.4,58.4,0,0,1,5.894-3.232l3.042-1.331c.951-.38,2.091-.57,3.042-.951a67.322,67.322,0,0,1,23.386-2.472c14.83.761,28.329,3.8,42.588,7.225v1.141c-7.035.38-14.069.38-21.1.38s-14.069,0-21.1.38A72.537,72.537,0,0,0,109.049,91.7l-2.091.761L104.676,93.6a32.51,32.51,0,0,0-4.373,2.472,14.51,14.51,0,0,0-2.091,1.521,15.437,15.437,0,0,0-1.9,1.711,7.444,7.444,0,0,0-1.521,1.9,12.787,12.787,0,0,0-1.331,2.091c-3.422,5.894-5.324,12.738-7.985,19.2q-2,4.848-4.563,9.7a29.479,29.479,0,0,1-7.035,8.366c-11.408,8.556-24.907,13.689-38.6,17.111Z" transform="translate(-34.9 -78.833)" fill="#9cece0"/>
      </g>
    </g>
    <g id="Group_10" data-name="Group 10" transform="translate(58.394 628.368)">
      <g id="Group_9" data-name="Group 9" transform="translate(0 0)">
        <path id="Path_5" data-name="Path 5" d="M187.588,410.471a77.637,77.637,0,0,1-18.252,11.978c-6.654,3.042-13.879,5.7-21.674,6.464a50.508,50.508,0,0,1-11.978.19,44.99,44.99,0,0,1-12.168-2.662,54.733,54.733,0,0,1-11.6-5.7,65.155,65.155,0,0,1-9.316-8.175c-2.662-2.852-4.943-5.894-7.225-8.746-2.091-2.852-4.183-5.514-5.894-7.985-.951-1.141-1.9-2.472-2.852-3.422a15.366,15.366,0,0,0-3.042-3.042,67.953,67.953,0,0,0-7.035-5.894C66.667,375.868,54.309,370.354,41,364.841l.19-1.141a128.183,128.183,0,0,1,20.724,3.8,82.432,82.432,0,0,1,19.393,8.175c6.084,3.612,11.788,7.8,16.351,13.309,4.563,5.323,8.556,11.027,13.309,15.971a52.662,52.662,0,0,0,7.605,6.845,37.094,37.094,0,0,0,8.936,4.943,44.73,44.73,0,0,0,9.887,2.662,61.994,61.994,0,0,0,10.267.57A82.847,82.847,0,0,0,168,416.555a150.676,150.676,0,0,0,19.583-7.035Z" transform="translate(-41 -363.7)" fill="#9cece0"/>
      </g>
    </g>
    <g id="Group_12" data-name="Group 12" transform="translate(495.756 661.82)">
      <g id="Group_11" data-name="Group 11">
        <path id="Path_6" data-name="Path 6" d="M496.992,388.91c-27.949,1.9-55.707,2.472-83.466,3.042l-10.457.19H392.612l-20.724.19c-13.879,0-27.568,0-41.448.38-13.879-.19-27.568,0-41.448.19H257.813l-10.457-.19c-27.759-.19-55.327-.38-83.466-1.9l-.19-1.141q82.99-7.415,166.361-8.366c55.517-.19,111.034,2.091,166.361,6.464Z" transform="translate(-163.7 -381.294)" fill="#9cece0"/>
      </g>
    </g>
    <g id="Group_14" data-name="Group 14" transform="translate(1195.381 606.123)">
      <g id="Group_13" data-name="Group 13">
        <path id="Path_7" data-name="Path 7" d="M538.051,352.57c-9.7,8.746-18.442,17.111-25.1,26.428-2.852,4.183-5.514,9.316-8.556,14.83-1.521,2.852-3.232,5.514-4.943,8.556a81.617,81.617,0,0,1-6.274,8.556,50.852,50.852,0,0,1-8.746,7.985c-.76.57-1.711,1.141-2.662,1.711s-1.9,1.141-2.662,1.521a29.2,29.2,0,0,1-5.7,2.091c-1.9.57-3.8.951-5.7,1.331-1.9.19-3.8.57-5.7.57a52.9,52.9,0,0,1-11.027-.951C436.9,422.157,425.306,415.122,415.8,406l.57-.951a123.446,123.446,0,0,0,17.3,7.225,85.333,85.333,0,0,0,18.062,3.993,48.776,48.776,0,0,0,9.126,0,19.09,19.09,0,0,0,4.563-.76,29.381,29.381,0,0,0,4.373-1.331c5.894-1.9,10.647-5.7,14.64-10.457a108.671,108.671,0,0,0,10.647-15.21c3.422-5.324,6.654-10.837,11.027-15.4a87.555,87.555,0,0,1,14.45-12.168A108.525,108.525,0,0,1,537.291,352Z" transform="translate(-415.8 -352)" fill="#9cece0"/>
      </g>
    </g>
    <g id="Group_16" data-name="Group 16" transform="translate(45.086 556.31)">
      <g id="Group_15" data-name="Group 15">
        <path id="Path_8" data-name="Path 8" d="M34,361.734a447.186,447.186,0,0,1,47.539,4.753,372.094,372.094,0,0,1,45.841,10.267,363.966,363.966,0,0,1,43.012,15.02,326.381,326.381,0,0,1,39.05,19.583l-5.659-1.521c41.031-.951,82.062-1.9,123.092-2.472l61.4-1.141c20.374-.38,41.031-.57,61.4-.76,82.062-1.141,164.123-1.521,246.185-2.091l123.092-.19h30.844l30.844.19,61.688.19c41.031,0,82.062.57,123.092.951s82.062.951,123.093,1.521l-7.641,3.232a182.223,182.223,0,0,1,26.883-27.949A215.168,215.168,0,0,1,1242,357.551a269.183,269.183,0,0,1,40.182-18.823,301,301,0,0,1,44.709-12.929l.566,1.141c-29.995,7.605-57.726,19.2-81.213,33.652-23.487,14.64-43.012,32.131-56.594,51.524l-.283.38h-.566l-492.37,2.281L204.065,416.3H203.5l-.283-.19c-22.921-14.64-49.52-26.808-78.1-35.744a415.629,415.629,0,0,0-90.834-17.492Z" transform="translate(-34 -325.8)" fill="#9cece0"/>
      </g>
    </g>
    <g id="Group_18" data-name="Group 18" transform="translate(1316.531 215.984)">
      <g id="Group_17" data-name="Group 17">
        <path id="Path_9" data-name="Path 9" d="M503.818,147.37c-2.852,25.477-6.084,50.384-8.556,75.29l-1.521,18.632c-.57,6.274-.951,12.358-1.141,18.632-.76,12.358-1.521,24.907-1.521,37.265-.57,12.358-.57,24.907-.38,37.265,0,6.274.19,12.548.38,18.632l.57,18.632c1.141,24.907,3.042,50,4.753,75.48l-1.141.19a610.208,610.208,0,0,1-15.59-150.77,632.144,632.144,0,0,1,6.845-75.67A613.718,613.718,0,0,1,502.867,146.8Z" transform="translate(-479.52 -146.8)" fill="#9cece0"/>
      </g>
    </g>
    <g id="Group_20" data-name="Group 20" transform="translate(21.7 252.298)">
      <g id="Group_19" data-name="Group 19">
        <path id="Path_10" data-name="Path 10" d="M22.841,165.9c13.5,22.245,23.2,46.581,30.04,71.678l2.472,9.506c.761,3.232,1.331,6.464,2.091,9.506l1.9,9.7,1.711,9.7a385.642,385.642,0,0,1,3.612,38.976,383.6,383.6,0,0,1-.761,39.166l-.951,9.7-1.141,9.7c-.38,3.232-.951,6.464-1.331,9.7l-1.711,9.7A285.281,285.281,0,0,1,34.248,466.68l-1.141-.38a437.17,437.17,0,0,0,20.344-150.96A436.836,436.836,0,0,0,21.7,166.28Z" transform="translate(-21.7 -165.9)" fill="#9cece0"/>
      </g>
    </g>
    <g id="Group_22" data-name="Group 22" transform="translate(24.172 96.014)">
      <g id="Group_21" data-name="Group 21">
        <path id="Path_11" data-name="Path 11" d="M23,178.763a251.386,251.386,0,0,0,48.145-4.183A192.712,192.712,0,0,0,114.5,161.272a145.134,145.134,0,0,0,34.912-21.484A105.883,105.883,0,0,0,172.785,112.6l1.971-3.042,5.349-.38,63.912-4.753c21.4-1.521,42.514-2.852,63.912-4.183l63.912-3.8c21.4-1.141,42.8-2.091,64.194-3.232l64.194-2.852c21.4-.951,42.8-1.521,64.194-2.282q64.194-2,128.387-3.232C735.606,84.27,778.4,83.7,821.2,83.7s85.592.38,128.669,1.141c21.4.38,42.8.951,64.194,1.521s42.8,1.331,64.193,2.091,42.8,1.711,64.194,2.852,42.8,2.091,63.912,3.422l3.942.19,1.689,1.9A177.167,177.167,0,0,0,1234.8,118.3a236.9,236.9,0,0,0,27.592,19.013,259.478,259.478,0,0,0,32.1,15.781,325.483,325.483,0,0,0,35.475,12.548l-.563,1.141a298.664,298.664,0,0,1-70.106-26.618,289.976,289.976,0,0,1-29.563-18.632,196.724,196.724,0,0,1-24.776-21.484l.845.38c-85.31-3.042-170.9-4.943-256.211-5.7-85.591-.761-170.9,0-256.493,1.521-85.31,1.521-170.9,3.8-256.211,7.035S266.26,110.7,180.95,115.451l.845-.38c-12.951,20.534-35.757,38.215-63.912,49.623-28.155,11.6-61.941,16.921-94.6,15.21Z" transform="translate(-23 -83.7)" fill="#9cece0"/>
      </g>
    </g>
  </g>
</svg>
