<svg xmlns="http://www.w3.org/2000/svg" width="23.17" height="23.17" viewBox="0 0 23.17 23.17">
  <path id="skip" d="M5.529,5.13a1.384,1.384,0,0,0-.765.276A1.981,1.981,0,0,0,4,7.013V26.4a2,2,0,0,0,.765,1.608,1.435,1.435,0,0,0,.841.276,1.378,1.378,0,0,0,.726-.184l7.456-7.121V26.4a2,2,0,0,0,.765,1.608,1.434,1.434,0,0,0,.841.276,1.378,1.378,0,0,0,.727-.184l10.17-9.694a2.5,2.5,0,0,0,.879-1.7,2.322,2.322,0,0,0-.879-1.7L16.12,5.313a1.4,1.4,0,0,0-1.568.092,1.981,1.981,0,0,0-.765,1.608v5.421L6.332,5.313A1.434,1.434,0,0,0,5.529,5.13Z" transform="translate(-4 -5.115)"/>
</svg>
